<svg xmlns="http://www.w3.org/2000/svg" width="54.39" height="12.463" viewBox="0 0 54.39 12.463">
  <g id="Groupe_171" data-name="Groupe 171" transform="translate(-25.791 -30.318)">
    <g id="Groupe_170" data-name="Groupe 170" transform="translate(25.79 30.318)">
      <g id="Groupe_169" data-name="Groupe 169">
        <path id="Tracé_144" data-name="Tracé 144" d="M70.853,33.047H69.6a1.206,1.206,0,0,1-1.078-1.427,1.188,1.188,0,0,1,1.3-.924,1.147,1.147,0,0,1,.9.619.831.831,0,0,1,.125.356C70.853,31.85,70.853,33.047,70.853,33.047Z" transform="translate(-37.054 -30.416)" fill="#fff"/>
        <path id="Tracé_145" data-name="Tracé 145" d="M65.856,30.663V42.824H64.135V30.663Z" transform="translate(-35.901 -30.409)" fill="#fff"/>
        <path id="Tracé_146" data-name="Tracé 146" d="M71.138,35.4v8.673h-1.7V35.4Z" transform="translate(-37.299 -31.658)" fill="#fff"/>
        <path id="Tracé_147" data-name="Tracé 147" d="M74.928,38.043a4.413,4.413,0,0,1,.929-1.375,4.326,4.326,0,0,1,1.386-.929,4.376,4.376,0,0,1,3.38,0,4.511,4.511,0,0,1,1.386.929,4.3,4.3,0,0,1,.937,1.375,4.177,4.177,0,0,1,.339,1.694V44.1h-1.72V39.736a2.546,2.546,0,0,0-.2-1.016,2.68,2.68,0,0,0-.561-.834,2.564,2.564,0,0,0-.845-.561,2.615,2.615,0,0,0-1.026-.205,2.555,2.555,0,0,0-1.018.205,2.583,2.583,0,0,0-.834.561,2.612,2.612,0,0,0-.563.834,2.571,2.571,0,0,0-.2,1.016V44.1H74.59v-4.36A4.214,4.214,0,0,1,74.928,38.043Z" transform="translate(-38.657 -31.658)" fill="#fff"/>
        <path id="Tracé_148" data-name="Tracé 148" d="M95.568,41.036l1.219,1.219-.6.6a4.341,4.341,0,0,1-6.152,0,4.12,4.12,0,0,1-.948-1.442,4.544,4.544,0,0,1-.31-1.635,4.466,4.466,0,0,1,.31-1.624,4.125,4.125,0,0,1,.948-1.431,4.237,4.237,0,0,1,1.44-.959,4.356,4.356,0,0,1,3.272,0,4.222,4.222,0,0,1,1.441.959l.6.6-4.82,4.818a2.579,2.579,0,0,0,3-.5Zm-4.316-3.119a2.591,2.591,0,0,0-.5,3q.234-.23.707-.7T92.463,39.2c.355-.356.694-.694,1.024-1.017s.585-.573.765-.755a2.618,2.618,0,0,0-1.559-.251A2.5,2.5,0,0,0,91.252,37.917Z" transform="translate(-42.397 -31.67)" fill="#fff"/>
        <path id="Exclusion_1" data-name="Exclusion 1" d="M8.445,8.46h0l-1.8-.008V7.809l-.005,0a6.591,6.591,0,0,1-2.587.632,3.513,3.513,0,0,1-.846-.1A4.271,4.271,0,0,1,1.076,7.12,4.205,4.205,0,0,1,0,4.488,4.578,4.578,0,0,1,.227,2.97,4.376,4.376,0,0,1,2.335.419,3.816,3.816,0,0,1,4.1,0,4.487,4.487,0,0,1,7.211,1.347,4.626,4.626,0,0,1,8.438,3.919c.059,1.35.009,4.41.007,4.539ZM4.182,1.805a2.5,2.5,0,0,0,0,5.005,2.479,2.479,0,0,0,2.45-2.5A2.48,2.48,0,0,0,4.182,1.805Z" transform="translate(0 3.828)" fill="#fff"/>
        <path id="Exclusion_2" data-name="Exclusion 2" d="M8.447,8.46h0l-1.8-.008V7.809l-.005,0a6.6,6.6,0,0,1-2.59.633,3.521,3.521,0,0,1-.846-.1A4.276,4.276,0,0,1,1.076,7.121,4.206,4.206,0,0,1,0,4.489,4.57,4.57,0,0,1,.227,2.97,4.376,4.376,0,0,1,2.337.421,3.814,3.814,0,0,1,4.107,0,4.481,4.481,0,0,1,7.213,1.347,4.634,4.634,0,0,1,8.44,3.919c.056,1.346.009,4.41.007,4.54ZM4.182,1.806A2.481,2.481,0,0,0,1.73,4.31a2.479,2.479,0,0,0,2.452,2.5,2.5,2.5,0,0,0,0-5Z" transform="translate(17.405 3.857)" fill="#fff"/>
        <path id="Tracé_153" data-name="Tracé 153" d="M37.221,30.318s1.608.35,1.757.988c0,0,.044.04.044.211s-.007,2.364.008,2.58a2.62,2.62,0,0,0,1.114,2.026,2.7,2.7,0,0,0,4.291-2.011s0-2.618.024-2.723.127-.419.688-.687a4.818,4.818,0,0,1,1.1-.368L46.24,34.1a4.1,4.1,0,0,1-.711,2.274,4.549,4.549,0,0,1-2.885,1.99l-.008,4.33h-1.8l-.022-4.343a4.383,4.383,0,0,1-2.872-1.969,4.491,4.491,0,0,1-.717-2.281Z" transform="translate(-28.804 -30.318)" fill="#fff"/>
      </g>
    </g>
  </g>
</svg>
