<svg xmlns="http://www.w3.org/2000/svg" width="68.439" height="68.472" viewBox="0 0 68.439 68.472">
  <g id="Groupe_1220" data-name="Groupe 1220" transform="translate(-1.5 -1.5)">
    <path id="Tracé_238" data-name="Tracé 238" d="M11.634,2A9.667,9.667,0,0,0,2,11.634V59.805a9.667,9.667,0,0,0,9.634,9.634H35.72a2.409,2.409,0,1,0,0-4.817H11.634a4.755,4.755,0,0,1-4.817-4.817V11.634a4.755,4.755,0,0,1,4.817-4.817h33.72a4.755,4.755,0,0,1,4.817,4.817v4.817a2.409,2.409,0,1,0,4.817,0V11.634A9.667,9.667,0,0,0,45.354,2Z" transform="translate(0 0)" fill="#fff" stroke="#244879" stroke-width="1"/>
    <path id="Tracé_239" data-name="Tracé 239" d="M72.86,90a16.84,16.84,0,0,0-9.606,30.685v15.077a2.409,2.409,0,0,0,3.749,2l5.857-3.919,5.857,3.919a2.409,2.409,0,0,0,3.749-2V120.686A16.84,16.84,0,0,0,72.86,90Zm0,4.817A12.043,12.043,0,1,1,60.817,106.86,12.006,12.006,0,0,1,72.86,94.817Zm-4.789,28.2a16.6,16.6,0,0,0,9.578,0v8.242l-3.448-2.31a2.409,2.409,0,0,0-2.681,0l-3.448,2.31Z" transform="translate(-20.28 -68.732)" fill="#fff" stroke="#244879" stroke-width="1"/>
    <path id="Tracé_240" data-name="Tracé 240" d="M9.409,7a2.409,2.409,0,0,0,0,4.817h7.226a2.409,2.409,0,0,0,0-4.817Zm0,9.634a2.409,2.409,0,0,0,0,4.817H23.86a2.409,2.409,0,0,0,0-4.817Zm0,9.634a2.409,2.409,0,0,0,0,4.817h7.226a2.409,2.409,0,1,0,0-4.817Z" transform="translate(7.043 7.043)" fill="#fff" stroke="#244879" stroke-width="1"/>
  </g>
</svg>
