<svg xmlns="http://www.w3.org/2000/svg" width="70.191" height="59.663" viewBox="0 0 70.191 59.663">
  <path id="_08_Video_Folder" data-name="08 Video Folder" d="M68.927,14.019h-34.1L32.866,9.966A5.264,5.264,0,0,0,28.128,7H9.264A5.264,5.264,0,0,0,4,12.264V61.4a5.264,5.264,0,0,0,5.264,5.264H68.927A5.264,5.264,0,0,0,74.191,61.4V19.283a5.264,5.264,0,0,0-5.264-5.264ZM70.682,61.4a1.755,1.755,0,0,1-1.755,1.755H9.264A1.755,1.755,0,0,1,7.51,61.4V12.264A1.755,1.755,0,0,1,9.264,10.51H28.128a1.755,1.755,0,0,1,1.579.983l4.9,10.09a5.264,5.264,0,0,0,4.738,2.966H65.417a1.755,1.755,0,1,0,0-3.51H39.341a1.755,1.755,0,0,1-1.579-.983l-1.228-2.527H68.927a1.755,1.755,0,0,1,1.755,1.755ZM49.361,39.885l-15.53-8.458a3.51,3.51,0,0,0-5.264,3.018V51.361a3.51,3.51,0,0,0,5.177,3.088l15.617-8.458a3.51,3.51,0,0,0,0-6.177ZM32.077,51.431V34.515l15.618,8.458Z" transform="translate(-4 -7)" fill="#fff"/>
</svg>
