<svg xmlns="http://www.w3.org/2000/svg" width="90" height="90" viewBox="0 0 90 90">
  <g id="Groupe_1219" data-name="Groupe 1219" transform="translate(-0.342 -0.341)">
    <rect id="Rectangle_109" data-name="Rectangle 109" width="90" height="90" transform="translate(0.342 0.341)" fill="none"/>
    <path id="Tracé_237" data-name="Tracé 237" d="M60.84,67.335A11.335,11.335,0,0,1,72.175,56H94.846a2.834,2.834,0,0,1,2.834,2.834v45.342a2.834,2.834,0,0,1-2.834,2.834H72.175A11.335,11.335,0,0,0,60.84,118.345M24,104.175a2.834,2.834,0,0,0,2.834,2.834H49.5A11.335,11.335,0,0,1,60.84,118.345V67.335A11.335,11.335,0,0,0,49.5,56H26.834A2.834,2.834,0,0,0,24,58.834Z" transform="translate(-15.498 -36.163)" fill="none" stroke="#fff" stroke-linecap="round" stroke-linejoin="round" stroke-width="4"/>
  </g>
</svg>
