<svg xmlns="http://www.w3.org/2000/svg" width="83.999" height="83.931" viewBox="0 0 83.999 83.931">
  <g id="Groupe_1221" data-name="Groupe 1221" transform="translate(-3.001 -3.055)">
    <path id="Tracé_241" data-name="Tracé 241" d="M49.476,20.355a1.448,1.448,0,0,1-.7-.174L45,18.082l-3.78,2.1a1.448,1.448,0,0,1-2.129-1.448l.739-4.519-3.114-3.186a1.434,1.434,0,0,1,.826-2.419l4.244-.652,1.9-4.055a1.448,1.448,0,0,1,2.636,0l1.9,4.055,4.244.652a1.434,1.434,0,0,1,.826,2.419l-3.114,3.186.739,4.519a1.305,1.305,0,0,1-1.434,1.622ZM45,14.982a1.318,1.318,0,0,1,.7.188L47.564,16.2l-.377-2.3a1.448,1.448,0,0,1,.391-1.246l1.651-1.695-2.216-.333a1.448,1.448,0,0,1-1.086-.811L45,7.827l-.927,1.984a1.448,1.448,0,0,1-1.086.811l-2.216.333,1.651,1.695a1.448,1.448,0,0,1,.391,1.246l-.377,2.3,1.868-1.028A1.318,1.318,0,0,1,45,14.982Zm4.475,72a1.448,1.448,0,0,1-.7-.174L45,84.7l-3.78,2.1a1.448,1.448,0,0,1-2.129-1.448l.739-4.519-3.114-3.186a1.434,1.434,0,0,1,.826-2.419l4.244-.652,1.9-4.055a1.448,1.448,0,0,1,2.636,0l1.9,4.055,4.244.652a1.434,1.434,0,0,1,.826,2.419l-3.114,3.186.739,4.519a1.305,1.305,0,0,1-1.434,1.622ZM45,81.605a1.318,1.318,0,0,1,.7.188l1.868,1.028-.377-2.3a1.448,1.448,0,0,1,.391-1.246l1.651-1.695-2.216-.333a1.448,1.448,0,0,1-1.086-.811L45,74.45l-.927,1.984a1.448,1.448,0,0,1-1.086.811l-2.216.333,1.651,1.695a1.448,1.448,0,0,1,.391,1.246l-.377,2.3,1.868-1.028a1.318,1.318,0,0,1,.7-.188ZM16.165,53.667a1.448,1.448,0,0,1-.7-.174l-3.78-2.1-3.78,2.1A1.448,1.448,0,0,1,5.78,52.045l.739-4.519L3.4,44.34a1.434,1.434,0,0,1,.826-2.419l4.244-.652,1.9-4.055a1.448,1.448,0,0,1,2.636,0l1.9,4.055,4.244.652a1.434,1.434,0,0,1,.826,2.419L16.86,47.526l.739,4.519a1.305,1.305,0,0,1-1.434,1.622Zm-4.475-5.373a1.318,1.318,0,0,1,.7.188l1.868,1.028-.377-2.3a1.448,1.448,0,0,1,.391-1.246l1.651-1.695L13.7,43.934a1.448,1.448,0,0,1-1.086-.811l-.927-1.984-.927,1.984a1.448,1.448,0,0,1-1.086.811l-2.216.333,1.651,1.695A1.448,1.448,0,0,1,9.5,47.207l-.377,2.3,1.868-1.028a1.318,1.318,0,0,1,.7-.188Zm71.1,5.373a1.448,1.448,0,0,1-.7-.174l-3.78-2.1-3.78,2.1A1.448,1.448,0,0,1,72.4,52.045l.739-4.519L70.028,44.34a1.434,1.434,0,0,1,.826-2.419l4.244-.652,1.9-4.055a1.448,1.448,0,0,1,2.636,0l1.9,4.055,4.244.652A1.434,1.434,0,0,1,86.6,44.34l-3.114,3.186.739,4.519a1.305,1.305,0,0,1-1.434,1.622Zm-4.475-5.373a1.318,1.318,0,0,1,.7.188l1.868,1.028-.377-2.3a1.448,1.448,0,0,1,.391-1.246l1.651-1.695-2.216-.333a1.448,1.448,0,0,1-1.086-.811l-.927-1.984-.927,1.984a1.448,1.448,0,0,1-1.086.811l-2.216.333,1.651,1.695a1.448,1.448,0,0,1,.391,1.246l-.377,2.3,1.868-1.028a1.318,1.318,0,0,1,.7-.188Zm-5.663-17.8a1.448,1.448,0,0,1-.7-.174l-3.78-2.1-3.78,2.1a1.448,1.448,0,0,1-2.129-1.448L63,24.353,59.89,21.166a1.434,1.434,0,0,1,.826-2.419l4.244-.652,1.9-4.055a1.448,1.448,0,0,1,2.636,0l1.9,4.055,4.244.652a1.434,1.434,0,0,1,.826,2.419l-3.114,3.186.739,4.519a1.305,1.305,0,0,1-1.434,1.622ZM68.174,25.12a1.318,1.318,0,0,1,.7.188l1.868,1.028-.377-2.3a1.448,1.448,0,0,1,.391-1.246L72.4,21.094l-2.216-.333A1.448,1.448,0,0,1,69.1,19.95l-.927-1.984-.927,1.984a1.448,1.448,0,0,1-1.086.811l-2.216.333L65.6,22.789a1.448,1.448,0,0,1,.391,1.246l-.377,2.3,1.868-1.028a1.318,1.318,0,0,1,.7-.188ZM26.3,30.494a1.448,1.448,0,0,1-.7-.174l-3.78-2.1-3.78,2.1a1.448,1.448,0,0,1-2.129-1.448l.739-4.519-3.114-3.186a1.434,1.434,0,0,1,.826-2.419l4.244-.652,1.9-4.055a1.448,1.448,0,0,1,2.636,0l1.9,4.055,4.244.652a1.434,1.434,0,0,1,.826,2.419L27,24.353l.739,4.519A1.305,1.305,0,0,1,26.3,30.494ZM21.828,25.12a1.318,1.318,0,0,1,.7.188l1.868,1.028-.377-2.3a1.448,1.448,0,0,1,.391-1.246l1.651-1.695-2.216-.333a1.448,1.448,0,0,1-1.086-.811l-.927-1.984L20.9,19.95a1.448,1.448,0,0,1-1.086.811l-2.216.333,1.651,1.695a1.448,1.448,0,0,1,.391,1.246l-.377,2.3,1.868-1.028a1.318,1.318,0,0,1,.7-.188Zm5.924,50.271a1.448,1.448,0,0,1-.7-.174l-3.78-2.1-3.78,2.1a1.448,1.448,0,0,1-2.129-1.448l.739-4.519-3.114-3.186a1.434,1.434,0,0,1,.826-2.419l4.244-.652,1.9-4.055a1.448,1.448,0,0,1,2.636,0l1.9,4.055,4.244.652a1.434,1.434,0,0,1,.826,2.419l-3.114,3.186.739,4.519a1.305,1.305,0,0,1-1.434,1.622Zm-4.475-5.373a1.318,1.318,0,0,1,.7.188l1.868,1.028-.377-2.3a1.448,1.448,0,0,1,.391-1.246L27.5,65.992l-2.216-.333a1.448,1.448,0,0,1-1.086-.811l-.927-1.984-.927,1.984a1.448,1.448,0,0,1-1.086.811l-2.216.333L20.7,67.687a1.448,1.448,0,0,1,.391,1.246l-.377,2.3,1.868-1.028a1.318,1.318,0,0,1,.7-.188ZM72.649,76.84a1.448,1.448,0,0,1-.7-.174l-3.78-2.1-3.78,2.1a1.448,1.448,0,0,1-2.129-1.448L63,70.7,59.89,67.513a1.434,1.434,0,0,1,.826-2.419l4.244-.652,1.9-4.055a1.448,1.448,0,0,1,2.636,0l1.9,4.055,4.244.652a1.434,1.434,0,0,1,.826,2.419L73.344,70.7l.739,4.519a1.305,1.305,0,0,1-1.434,1.622Zm-4.475-5.373a1.318,1.318,0,0,1,.7.188l1.868,1.028-.377-2.3a1.448,1.448,0,0,1,.391-1.246L72.4,67.44l-2.216-.333A1.448,1.448,0,0,1,69.1,66.3l-.927-1.984L67.247,66.3a1.448,1.448,0,0,1-1.086.811l-2.216.333L65.6,69.135a1.448,1.448,0,0,1,.391,1.246l-.377,2.3,1.868-1.028a1.318,1.318,0,0,1,.7-.188Z" transform="translate(0 0)" fill="#fff"/>
    <path id="Tracé_242" data-name="Tracé 242" d="M33.242,46.07a1.448,1.448,0,0,1-1.028-.42l-2.9-2.9A1.454,1.454,0,0,1,31.373,40.7l1.868,1.883L38.007,37.8a1.454,1.454,0,1,1,2.057,2.057L34.27,45.65A1.448,1.448,0,0,1,33.242,46.07Z" transform="translate(10.311 3.298)" fill="#fff"/>
    <g id="Ellipse_9" data-name="Ellipse 9" transform="translate(30.001 29.678)" fill="none" stroke="#fff" stroke-width="3.5">
      <circle cx="15" cy="15" r="15" stroke="none"/>
      <circle cx="15" cy="15" r="13.25" fill="none"/>
    </g>
  </g>
</svg>
