<svg xmlns="http://www.w3.org/2000/svg" xmlns:xlink="http://www.w3.org/1999/xlink" width="80.322" height="59.663" viewBox="0 0 80.322 59.663">
  <defs>
    <clipPath id="clip-path">
      <rect id="Rectangle_110" data-name="Rectangle 110" width="80.322" height="59.663" fill="none"/>
    </clipPath>
  </defs>
  <g id="Groupe_1223" data-name="Groupe 1223" transform="translate(0 0)">
    <g id="Groupe_1222" data-name="Groupe 1222" transform="translate(0 0.001)" clip-path="url(#clip-path)">
      <path id="Tracé_243" data-name="Tracé 243" d="M41.376,48.359H37.851a5.831,5.831,0,0,1-4.326-1.973c-3.222-3.358-8.581-9.993-8.581-9.993l-2.423-3.03a19.229,19.229,0,0,1-.04,3.781L21.5,48.381H15.765l1.751-20s.813-.028,1.956,0c1.861.038,4.589.319,6.038,1.831,2.341,2.442,8.772,10.355,8.772,10.355.494.6,1.966,2.472,2.115,2.8a17.459,17.459,0,0,1,.013-3.764l1.425-16.15h5.721ZM72.413,23.908h-12.4c-3.4,0-6.338-.075-6.542,2.251l-.366,4.17a42.285,42.285,0,0,1,5.318-.34l.008-.011h7.85c-.067.743-1.022,3.839-2.159,4.269H57.046c-2.738.119-4.333.567-4.473,2.168L51.517,48.359H45.786s2.027-23.034,2.108-23.945c.417-4.775,7.051-4.775,12.172-4.775h14.5c-.068.742-1.022,3.838-2.158,4.269" transform="translate(-3.395 -4.23)" fill="#fff"/>
      <path id="Tracé_244" data-name="Tracé 244" d="M78.017,18.914C74.344,5.152,54.705-.828,34.155,5.56S-.079,28.28,3.6,42.042,26.91,61.783,47.46,55.4,81.693,32.675,78.017,18.914Z" transform="translate(-0.646 -0.646)" fill="none" stroke="#fff" stroke-miterlimit="10" stroke-width="3.5"/>
    </g>
  </g>
</svg>
