<svg xmlns="http://www.w3.org/2000/svg" width="66.248" height="60.666" viewBox="0 0 66.248 60.666">
  <g id="Groupe_1199" data-name="Groupe 1199" transform="translate(1.5 1.5)">
    <g id="Groupe_1256" data-name="Groupe 1256" transform="translate(0 0)">
      <line id="Ligne_34" data-name="Ligne 34" y1="13.963" transform="translate(54.273 42.108)" fill="none" stroke="#1a9cd8" stroke-miterlimit="10" stroke-width="3"/>
      <path id="Tracé_192" data-name="Tracé 192" d="M4.116,32.118l3.01,2.522,3.013-2.524,3.486,0A2.552,2.552,0,0,1,16.1,34.738l-.409,14.152a2.148,2.148,0,0,1-2.08,2.078,2.085,2.085,0,0,1-.861-.155l-.263,12.371a2.829,2.829,0,0,1-5.364,1.2,2.827,2.827,0,0,1-5.361-1.2L1.5,50.81" transform="translate(47.145 -8.295)" fill="none" stroke="#1a9cd8" stroke-linecap="round" stroke-linejoin="round" stroke-width="3"/>
      <line id="Ligne_35" data-name="Ligne 35" y1="13.963" transform="translate(54.273 42.107)" fill="none" stroke="#1a9cd8" stroke-miterlimit="10" stroke-width="3"/>
      <path id="Tracé_193" data-name="Tracé 193" d="M12.658,25.261s-.445.05-.594.05-.6-.05-.6-.05a3.4,3.4,0,0,1-2.586-2.783c-.363-1.508-.458-3.52,1.027-4.429a4.733,4.733,0,0,1,2.154-.45,4.736,4.736,0,0,1,2.154.45c1.484.91,1.388,2.922,1.026,4.429A3.4,3.4,0,0,1,12.658,25.261Z" transform="translate(42.209 -5.073)" fill="none" stroke="#1a9cd8" stroke-miterlimit="10" stroke-width="3"/>
      <line id="Ligne_36" data-name="Ligne 36" y1="15.9" transform="translate(33.833 39.95)" fill="none" stroke="#1a9cd8" stroke-miterlimit="10" stroke-width="3"/>
      <path id="Tracé_194" data-name="Tracé 194" d="M26.17,47.37l.3,14.09a3.219,3.219,0,0,0,6.1,1.369,3.221,3.221,0,0,0,6.108-1.369l.3-14.086a2.387,2.387,0,0,0,.98.177,2.445,2.445,0,0,0,2.368-2.367L42.8,29.069a2.905,2.905,0,0,0-2.82-2.988l-3.969,0-3.431,2.875-3.428-2.872-1.421,0" transform="translate(1.256 -6.956)" fill="none" stroke="#1a9cd8" stroke-linecap="round" stroke-linejoin="round" stroke-width="3"/>
      <line id="Ligne_37" data-name="Ligne 37" y1="15.901" transform="translate(33.833 39.948)" fill="none" stroke="#1a9cd8" stroke-miterlimit="10" stroke-width="3"/>
      <path id="Tracé_195" data-name="Tracé 195" d="M38.876,18.278s-.507.057-.676.057-.677-.057-.677-.057a3.876,3.876,0,0,1-2.945-3.169c-.413-1.716-.523-4.008,1.169-5.044a6.135,6.135,0,0,1,4.907,0c1.69,1.036,1.58,3.328,1.169,5.044A3.876,3.876,0,0,1,38.876,18.278Z" transform="translate(-4.366 -3.287)" fill="none" stroke="#1a9cd8" stroke-miterlimit="10" stroke-width="3"/>
      <line id="Ligne_38" data-name="Ligne 38" y1="17.839" transform="translate(11.465 37.791)" fill="none" stroke="#1a9cd8" stroke-miterlimit="10" stroke-width="3"/>
      <path id="Tracé_196" data-name="Tracé 196" d="M53.841,41.475s-.525-18.208-.522-18.268a3.25,3.25,0,0,1,3.258-3.156l4.36,0,3.846,3.223,3.848-3.227,4.453,0A3.26,3.26,0,0,1,76.249,23.4l-.523,18.079a2.746,2.746,0,0,1-2.657,2.655,2.682,2.682,0,0,1-1.1-.2l-.336,15.8a3.614,3.614,0,0,1-6.852,1.536,3.612,3.612,0,0,1-6.849-1.536L57.6,43.927a2.66,2.66,0,0,1-.941.2A2.736,2.736,0,0,1,53.841,41.475Z" transform="translate(-53.319 -5.616)" fill="none" stroke="#1a9cd8" stroke-linecap="round" stroke-linejoin="round" stroke-width="3"/>
      <line id="Ligne_39" data-name="Ligne 39" y1="17.838" transform="translate(11.465 37.791)" fill="none" stroke="#1a9cd8" stroke-miterlimit="10" stroke-width="3"/>
      <path id="Tracé_197" data-name="Tracé 197" d="M67.573,11.288s-.569.065-.759.065-.759-.065-.759-.065a4.344,4.344,0,0,1-3.3-3.555c-.464-1.926-.587-4.5,1.311-5.659a6.875,6.875,0,0,1,5.5,0c1.9,1.161,1.773,3.732,1.311,5.659A4.346,4.346,0,0,1,67.573,11.288Z" transform="translate(-55.349 -1.5)" fill="none" stroke="#1a9cd8" stroke-miterlimit="10" stroke-width="3"/>
    </g>
  </g>
</svg>
