<svg xmlns="http://www.w3.org/2000/svg" width="65.917" height="68.462" viewBox="0 0 65.917 68.462">
  <g id="Groupe_1205" data-name="Groupe 1205" transform="translate(0.263 0.263)">
    <g id="Groupe_1259" data-name="Groupe 1259" transform="translate(0 0)">
      <path id="Tracé_209" data-name="Tracé 209" d="M58.547,23.234C58.064,10.31,47.448,1.5,34.538,1.5c-13.215,0-24.026,9.23-24.026,22.656V56.7" transform="translate(-1.842 -0.263)" fill="none" stroke="#1a9cd8" stroke-linejoin="round" stroke-width="3"/>
      <line id="Ligne_41" data-name="Ligne 41" y1="21.205" transform="translate(56.722 35.232)" fill="none" stroke="#1a9cd8" stroke-linejoin="round" stroke-width="3"/>
      <path id="Tracé_210" data-name="Tracé 210" d="M25.3,59.456v1.583a5.833,5.833,0,0,1-5.816,5.816H7.316A5.834,5.834,0,0,0,1.5,72.671v4.446" transform="translate(-0.263 -10.418)" fill="none" stroke="#1a9cd8" stroke-linecap="round" stroke-linejoin="round" stroke-width="3"/>
      <path id="Tracé_211" data-name="Tracé 211" d="M48.925,59.456v1.583a5.833,5.833,0,0,0,5.816,5.816h12.17a5.834,5.834,0,0,1,5.816,5.816v4.446" transform="translate(-8.573 -10.418)" fill="none" stroke="#1a9cd8" stroke-linecap="round" stroke-linejoin="round" stroke-width="3"/>
      <path id="Tracé_212" data-name="Tracé 212" d="M59.388,27.849h7.787a2.589,2.589,0,0,1,2.581,2.582V36.45a3.883,3.883,0,0,1-3.871,3.872h-6.5" transform="translate(-10.406 -4.88)" fill="none" stroke="#1a9cd8" stroke-linejoin="round" stroke-width="3"/>
      <path id="Tracé_213" data-name="Tracé 213" d="M52.468,20.387V37.938a15.242,15.242,0,0,1-15.2,15.2H35.092a15.242,15.242,0,0,1-15.2-15.2V20.387" transform="translate(-3.486 -3.572)" fill="none" stroke="#1a9cd8" stroke-linecap="round" stroke-linejoin="round" stroke-width="3"/>
      <path id="Tracé_214" data-name="Tracé 214" d="M52.468,20.387c0,4.288-7.329,7.8-16.286,7.8S19.9,24.675,19.9,20.387" transform="translate(-3.486 -3.572)" fill="none" stroke="#1a9cd8" stroke-linecap="round" stroke-linejoin="round" stroke-width="3"/>
      <path id="Tracé_215" data-name="Tracé 215" d="M45.432,47.74a3.49,3.49,0,1,1-3.49-3.49A3.489,3.489,0,0,1,45.432,47.74Z" transform="translate(-6.738 -7.754)" fill="none" stroke="#1a9cd8" stroke-linecap="round" stroke-linejoin="round" stroke-width="3"/>
      <path id="Tracé_216" data-name="Tracé 216" d="M46.915,47.516A12.3,12.3,0,0,0,57.2,42.972" transform="translate(-8.221 -7.53)" fill="none" stroke="#1a9cd8" stroke-linejoin="round" stroke-width="3"/>
      <path id="Tracé_217" data-name="Tracé 217" d="M47.94,67.295,37.4,75.13,26.868,67.295" transform="translate(-4.708 -11.792)" fill="none" stroke="#1a9cd8" stroke-linejoin="round" stroke-width="3"/>
    </g>
  </g>
</svg>
