<svg xmlns="http://www.w3.org/2000/svg" width="67.739" height="60.687" viewBox="0 0 67.739 60.687">
  <g id="Groupe_1203" data-name="Groupe 1203" transform="translate(0.34 0.348)">
    <g id="Groupe_1258" data-name="Groupe 1258" transform="translate(0 0)">
      <path id="Tracé_202" data-name="Tracé 202" d="M51.7,1.7a.768.768,0,0,0-.684-.183c-.166.036-16.5,3.778-15.389,19.978-2.043,1.14-8.716,5.656-4.811,14.289a.774.774,0,0,0,.649.451.8.8,0,0,0,.708-.355,6.348,6.348,0,0,1,7.145-2.337l6.5,1.741a6.352,6.352,0,0,1,5.02,5.593.773.773,0,0,0,1.223.6c7.7-5.526,4.178-12.771,2.977-14.78C64.1,13.223,51.826,1.817,51.7,1.7Z" transform="translate(-6.718 -0.34)" fill="none" stroke="#1a9cd8" stroke-linecap="round" stroke-linejoin="round" stroke-width="3"/>
      <path id="Tracé_203" data-name="Tracé 203" d="M56.139,17.1a3.834,3.834,0,1,1-2.711-4.7A3.834,3.834,0,0,1,56.139,17.1Z" transform="translate(-11.025 -2.783)" fill="none" stroke="#1a9cd8" stroke-miterlimit="10" stroke-width="3"/>
      <path id="Tracé_204" data-name="Tracé 204" d="M49.628,55.673A32.283,32.283,0,0,1,50.009,45.1" transform="translate(-11.197 -10.231)" fill="none" stroke="#1a9cd8" stroke-linecap="round" stroke-miterlimit="10" stroke-width="3"/>
      <path id="Tracé_205" data-name="Tracé 205" d="M41.8,43.224a31.981,31.981,0,0,1-5.352,9.861" transform="translate(-8.268 -9.806)" fill="none" stroke="#1a9cd8" stroke-linecap="round" stroke-miterlimit="10" stroke-width="3"/>
      <path id="Tracé_206" data-name="Tracé 206" d="M76.578,74.372c0-3.262-3.406-5.9-7.608-5.9q-.292,0-.578.016" transform="translate(-15.515 -15.533)" fill="none" stroke="#1a9cd8" stroke-linecap="round" stroke-miterlimit="10" stroke-width="3"/>
      <path id="Tracé_207" data-name="Tracé 207" d="M59.275,73.751c0-4.431-4.626-8.019-10.334-8.019A13.118,13.118,0,0,0,46,66.061" transform="translate(-10.436 -14.912)" fill="none" stroke="#1a9cd8" stroke-linecap="round" stroke-linejoin="bevel" stroke-width="3"/>
      <path id="Tracé_208" data-name="Tracé 208" d="M33.045,72.394a12.644,12.644,0,1,0-25.289,0Z" transform="translate(-1.76 -13.554)" fill="none" stroke="#1a9cd8" stroke-linejoin="bevel" stroke-width="3"/>
      <line id="Ligne_40" data-name="Ligne 40" x2="64.739" transform="translate(1.16 58.839)" fill="none" stroke="#1a9cd8" stroke-linecap="round" stroke-linejoin="round" stroke-width="3"/>
    </g>
  </g>
</svg>
