<svg xmlns="http://www.w3.org/2000/svg" width="78.1" height="60.582" viewBox="0 0 78.1 60.582">
  <g id="Groupe_1201" data-name="Groupe 1201" transform="translate(0.291 0.291)">
    <g id="Groupe_1257" data-name="Groupe 1257" transform="translate(0 0)">
      <path id="Tracé_198" data-name="Tracé 198" d="M46.861,51.166l3.66,1.515a1.965,1.965,0,0,1,1.2,1.343l.81,4.034a1.333,1.333,0,0,0,1.252,1.023h5.639a1.333,1.333,0,0,0,1.252-1.023l.811-4.034a1.963,1.963,0,0,1,1.2-1.343l5.439-2.253a1.954,1.954,0,0,1,1.8.094L73.36,52.8a1.333,1.333,0,0,0,1.611-.16l3.989-3.987a1.336,1.336,0,0,0,.161-1.611l-2.285-3.431a1.948,1.948,0,0,1-.093-1.8l2.252-5.44a1.967,1.967,0,0,1,1.345-1.2l4.033-.811A1.336,1.336,0,0,0,85.4,33.111V27.471a1.332,1.332,0,0,0-1.025-1.252l-4.03-.811A1.967,1.967,0,0,1,79,24.207l-2.254-5.44a1.949,1.949,0,0,1,.1-1.8l2.283-3.431a1.335,1.335,0,0,0-.161-1.611L74.97,7.939a1.335,1.335,0,0,0-1.611-.161l-3.43,2.283a1.951,1.951,0,0,1-1.8.094L62.691,7.9a1.965,1.965,0,0,1-1.2-1.345l-.811-4.03A1.334,1.334,0,0,0,59.426,1.5H53.786a1.333,1.333,0,0,0-1.252,1.026l-.81,4.03m4.882,10.259A13.475,13.475,0,1,1,47.778,40.47" transform="translate(-9.087 -0.291)" fill="none" stroke="#1a9cd8" stroke-linecap="round" stroke-miterlimit="10" stroke-width="3"/>
      <path id="Tracé_199" data-name="Tracé 199" d="M13.782,59.936v3.255c.179,1.681,2.48,3.107,5.619,3.772v.131c0,1.831,1.776,3.319,3.964,3.319s3.957-1.487,3.957-3.319v-.131c3.138-.666,5.439-2.093,5.619-3.772V59.936" transform="translate(-2.672 -11.622)" fill="none" stroke="#1a9cd8" stroke-linecap="round" stroke-linejoin="round" stroke-width="3"/>
      <path id="Tracé_200" data-name="Tracé 200" d="M34.754,7.2A19.354,19.354,0,0,0,20.979,1.5h0A19.5,19.5,0,0,0,1.5,20.978c0,4.571,2.307,8.813,3.681,10.935A28.623,28.623,0,0,0,11.4,38.163v4.846l.5.07a80.957,80.957,0,0,0,9.076.716,87.261,87.261,0,0,0,9.1-.717l.484-.066V38.162a28.586,28.586,0,0,0,6.219-6.249c1.376-2.121,3.681-6.363,3.681-10.933A19.357,19.357,0,0,0,34.754,7.2Z" transform="translate(-0.291 -0.291)" fill="none" stroke="#1a9cd8" stroke-linecap="round" stroke-linejoin="round" stroke-width="3"/>
      <path id="Tracé_201" data-name="Tracé 201" d="M11.18,24.424a12.885,12.885,0,0,1,2.458-8.256,13.139,13.139,0,0,1,10.669-4.9" transform="translate(-2.166 -2.183)" fill="none" stroke="#1a9cd8" stroke-linecap="round" stroke-miterlimit="10" stroke-width="3"/>
    </g>
  </g>
</svg>
