<svg xmlns="http://www.w3.org/2000/svg" xmlns:xlink="http://www.w3.org/1999/xlink" width="91.638" height="91.638" viewBox="0 0 91.638 91.638">
  <defs>
    <linearGradient id="linear-gradient" x1="0.5" x2="0.5" y2="1" gradientUnits="objectBoundingBox">
      <stop offset="0" stop-color="#fcfcfc"/>
      <stop offset="1" stop-color="#ddd"/>
      <stop offset="1" stop-color="gray"/>
    </linearGradient>
    <filter id="Tracé_22" x="0" y="0" width="91.638" height="91.638" filterUnits="userSpaceOnUse">
      <feOffset dy="10" input="SourceAlpha"/>
      <feGaussianBlur stdDeviation="5" result="blur"/>
      <feFlood flood-opacity="0.161"/>
      <feComposite operator="in" in2="blur"/>
      <feComposite in="SourceGraphic"/>
    </filter>
  </defs>
  <g transform="matrix(1, 0, 0, 1, 0, 0)" filter="url(#Tracé_22)">
    <path id="Tracé_22-2" data-name="Tracé 22" d="M30.819,3A30.819,30.819,0,1,0,61.638,33.819,30.819,30.819,0,0,0,30.819,3M22.977,47.654H17.141V29.16h5.836ZM19.911,26.848h-.043a3.227,3.227,0,0,1-3.482-3.206,3.26,3.26,0,0,1,3.566-3.211,3.224,3.224,0,1,1-.041,6.417M46.332,47.654H39.714v-9.57c0-2.505-1.036-4.215-3.312-4.215a3.342,3.342,0,0,0-3.161,2.266,4.218,4.218,0,0,0-.142,1.511V47.654H26.542s.085-16.953,0-18.493H33.1v2.9c.387-1.269,2.482-3.08,5.826-3.08,4.148,0,7.407,2.66,7.407,8.388Z" transform="translate(15 2)" fill="url(#linear-gradient)"/>
  </g>
</svg>
