<svg xmlns="http://www.w3.org/2000/svg" xmlns:xlink="http://www.w3.org/1999/xlink" width="183.886" height="212.331" viewBox="0 0 183.886 212.331">
  <defs>
    <clipPath id="clip-path">
      <rect id="Rectangle_90" data-name="Rectangle 90" width="183.886" height="212.331" fill="none"/>
    </clipPath>
    <clipPath id="clip-path-2">
      <rect id="Rectangle_91" data-name="Rectangle 91" width="29.88" height="25.816" fill="#fff"/>
    </clipPath>
    <clipPath id="clip-path-3">
      <rect id="Rectangle_94" data-name="Rectangle 94" width="35.656" height="28.776" fill="#fff"/>
    </clipPath>
  </defs>
  <g id="Groupe_2657" data-name="Groupe 2657" transform="translate(-868.057 -5525.828)">
    <path id="Tracé_155" data-name="Tracé 155" d="M10.038,24.473v4.043H16.45V30.6H10.038v5.083H7.573V22.406h9.693v2.067Z" transform="translate(886.232 5579.603)" fill="#fff"/>
    <path id="Tracé_156" data-name="Tracé 156" d="M20.9,32.61h-6.64l-1.309,3.074h-2.54l5.974-13.277h2.428L24.8,35.684H22.223Zm-.816-1.935-2.5-5.8-2.485,5.8Z" transform="translate(893.036 5579.605)" fill="#fff"/>
    <g id="Groupe_1192" data-name="Groupe 1192" transform="translate(868.057 5525.828)">
      <g id="Groupe_1191" data-name="Groupe 1191" transform="translate(0 0)" clip-path="url(#clip-path)">
        <path id="Tracé_157" data-name="Tracé 157" d="M26.291,29.985a3.342,3.342,0,0,1,.646,2.094,3.065,3.065,0,0,1-1.329,2.666,6.639,6.639,0,0,1-3.869.942h-6.6V22.406h6.219a6.092,6.092,0,0,1,3.624.921,2.954,2.954,0,0,1,1.272,2.533A3.336,3.336,0,0,1,25.8,27.6a3.114,3.114,0,0,1-1.251,1.176,3.485,3.485,0,0,1,1.744,1.2M17.6,24.341V28h3.488a3.516,3.516,0,0,0,1.982-.466,1.529,1.529,0,0,0,.694-1.357,1.547,1.547,0,0,0-.694-1.374,3.544,3.544,0,0,0-1.982-.466Zm6.848,7.494q0-1.918-2.863-1.914H17.6v3.828h3.985q2.861,0,2.863-1.914" transform="translate(36.334 53.775)" fill="#fff"/>
        <path id="Tracé_158" data-name="Tracé 158" d="M28.071,35.684l-2.713-3.89a4.636,4.636,0,0,1-.51.02h-3v3.869H19.384V22.407h5.464a7.328,7.328,0,0,1,3.006.568,4.327,4.327,0,0,1,1.962,1.632,4.969,4.969,0,0,1-.044,5.1,4.4,4.4,0,0,1-2.1,1.612l3.053,4.362ZM27.18,25.175a3.792,3.792,0,0,0-2.448-.683H21.849v5.294h2.883a3.752,3.752,0,0,0,2.448-.694,2.4,2.4,0,0,0,.833-1.962,2.379,2.379,0,0,0-.833-1.955" transform="translate(46.522 53.777)" fill="#fff"/>
        <rect id="Rectangle_84" data-name="Rectangle 84" width="2.465" height="13.277" transform="translate(79.771 76.181)" fill="#fff"/>
        <path id="Tracé_159" data-name="Tracé 159" d="M28.424,35.127a6.522,6.522,0,0,1-2.543-2.438,7.13,7.13,0,0,1,.01-7.018,6.549,6.549,0,0,1,2.553-2.438,7.474,7.474,0,0,1,3.631-.884,7.551,7.551,0,0,1,2.978.571,6.078,6.078,0,0,1,2.278,1.649l-1.595,1.5a4.654,4.654,0,0,0-3.55-1.557,4.978,4.978,0,0,0-2.445.6,4.31,4.31,0,0,0-1.69,1.659,5.1,5.1,0,0,0,0,4.818,4.318,4.318,0,0,0,1.69,1.663,4.976,4.976,0,0,0,2.445.6,4.624,4.624,0,0,0,3.55-1.574l1.595,1.52a6.1,6.1,0,0,1-2.288,1.649,7.625,7.625,0,0,1-2.989.568,7.472,7.472,0,0,1-3.631-.881" transform="translate(59.912 53.64)" fill="#fff"/>
        <path id="Tracé_160" data-name="Tracé 160" d="M39.152,32.61h-6.64L31.2,35.684h-2.54l5.974-13.277h2.428l5.994,13.277H40.478Zm-.816-1.935-2.506-5.8-2.485,5.8Z" transform="translate(68.792 53.777)" fill="#fff"/>
        <path id="Tracé_161" data-name="Tracé 161" d="M37.1,24.494H32.7V22.406H43.964v2.088h-4.4V35.686H37.1Z" transform="translate(78.471 53.775)" fill="#fff"/>
        <rect id="Rectangle_85" data-name="Rectangle 85" width="2.468" height="13.277" transform="translate(124.294 76.181)" fill="#fff"/>
        <path id="Tracé_162" data-name="Tracé 162" d="M41.546,35.124a6.56,6.56,0,0,1-2.56-2.445,7.064,7.064,0,0,1,0-7,6.545,6.545,0,0,1,2.56-2.448,8.054,8.054,0,0,1,7.324,0,6.545,6.545,0,0,1,2.56,2.438,7.074,7.074,0,0,1,0,7.018,6.521,6.521,0,0,1-2.56,2.438,8.026,8.026,0,0,1-7.324,0M47.6,33.247a4.328,4.328,0,0,0,1.669-1.669,5.056,5.056,0,0,0,0-4.8A4.337,4.337,0,0,0,47.6,25.107a5.1,5.1,0,0,0-4.78,0,4.337,4.337,0,0,0-1.669,1.673,5.031,5.031,0,0,0,0,4.8,4.328,4.328,0,0,0,1.669,1.669,5.073,5.073,0,0,0,4.78,0" transform="translate(91.34 53.64)" fill="#fff"/>
        <path id="Tracé_163" data-name="Tracé 163" d="M54.832,22.406V35.683H52.8l-7.32-8.99v8.99H43.034V22.406h2.03l7.32,8.993V22.406Z" transform="translate(103.282 53.775)" fill="#fff"/>
        <path id="Tracé_164" data-name="Tracé 164" d="M13.274,30.334v4.043h6.412v2.084H13.274v5.083H10.809V28.267H20.5v2.067Z" transform="translate(25.942 67.841)" fill="#fff"/>
        <path id="Tracé_165" data-name="Tracé 165" d="M23.05,41.545l-2.713-3.89a4.634,4.634,0,0,1-.51.02h-3v3.869H14.363V28.268h5.464a7.328,7.328,0,0,1,3.006.568,4.327,4.327,0,0,1,1.962,1.632,4.554,4.554,0,0,1,.683,2.523,4.485,4.485,0,0,1-.728,2.577,4.381,4.381,0,0,1-2.1,1.615l3.053,4.362Zm-.891-10.509a3.792,3.792,0,0,0-2.448-.683H16.828v5.294h2.883a3.752,3.752,0,0,0,2.448-.694,2.719,2.719,0,0,0,0-3.917" transform="translate(34.471 67.844)" fill="#fff"/>
        <path id="Tracé_166" data-name="Tracé 166" d="M28.378,38.471h-6.64l-1.309,3.074h-2.54l5.974-13.277H26.29l5.994,13.277H29.7Zm-.816-1.935-2.506-5.8-2.482,5.8Z" transform="translate(42.934 67.844)" fill="#fff"/>
        <path id="Tracé_167" data-name="Tracé 167" d="M34.418,28.267V41.544h-2.03l-7.324-8.99v8.99H22.62V28.267h2.03l7.32,8.993V28.267Z" transform="translate(54.288 67.841)" fill="#fff"/>
        <path id="Tracé_168" data-name="Tracé 168" d="M30.321,40.988a6.49,6.49,0,0,1-2.54-2.438,7.125,7.125,0,0,1,.007-7.021A6.54,6.54,0,0,1,30.342,29.1a7.437,7.437,0,0,1,3.631-.884,7.611,7.611,0,0,1,2.978.568,6.124,6.124,0,0,1,2.278,1.652l-1.595,1.5a4.641,4.641,0,0,0-3.546-1.557,4.945,4.945,0,0,0-2.448.6,4.31,4.31,0,0,0-1.69,1.659,5.1,5.1,0,0,0,0,4.818,4.31,4.31,0,0,0,1.69,1.659,4.945,4.945,0,0,0,2.448.6,4.622,4.622,0,0,0,3.546-1.574l1.595,1.516A6.106,6.106,0,0,1,36.941,41.3a7.682,7.682,0,0,1-2.985.568,7.476,7.476,0,0,1-3.635-.881m1,4.617.435-1.119a2.8,2.8,0,0,0,1.292.3c.67,0,1.006-.228,1.006-.683a.529.529,0,0,0-.248-.452,1.336,1.336,0,0,0-.758-.173h-.588l.51-1.935h1.292l-.265,1.064a1.956,1.956,0,0,1,1.231.52,1.472,1.472,0,0,1,.418,1.071,1.527,1.527,0,0,1-.7,1.309A3.2,3.2,0,0,1,33.065,46a3.569,3.569,0,0,1-1.748-.4" transform="translate(64.464 67.707)" fill="#fff"/>
        <path id="Tracé_169" data-name="Tracé 169" d="M41.048,38.471h-6.64L33.1,41.545h-2.54l5.974-13.277H38.96l6,13.277H42.377Zm-.816-1.935-2.506-5.8-2.482,5.8Z" transform="translate(73.342 67.844)" fill="#fff"/>
        <rect id="Rectangle_86" data-name="Rectangle 86" width="2.465" height="13.277" transform="translate(119.986 96.108)" fill="#fff"/>
        <path id="Tracé_170" data-name="Tracé 170" d="M39.008,41.434a6.246,6.246,0,0,1-2.268-1.156l.853-1.918a6.716,6.716,0,0,0,2,1.054,7.268,7.268,0,0,0,2.38.408,4.112,4.112,0,0,0,2.21-.476,1.436,1.436,0,0,0,.731-1.251,1.206,1.206,0,0,0-.408-.938,2.787,2.787,0,0,0-1.034-.578q-.627-.209-1.707-.476a19.264,19.264,0,0,1-2.458-.721A4.041,4.041,0,0,1,37.7,34.253a3.036,3.036,0,0,1-.673-2.077,3.524,3.524,0,0,1,.6-2,4.06,4.06,0,0,1,1.8-1.435,7.3,7.3,0,0,1,2.948-.53,9.616,9.616,0,0,1,2.39.3,6.587,6.587,0,0,1,2.03.874l-.775,1.918a7.589,7.589,0,0,0-1.822-.779,6.813,6.813,0,0,0-1.839-.265,3.83,3.83,0,0,0-2.173.493,1.525,1.525,0,0,0-.711,1.309,1.18,1.18,0,0,0,.408.928,2.929,2.929,0,0,0,1.034.571c.418.136.986.3,1.707.473a18.281,18.281,0,0,1,2.428.711,4.165,4.165,0,0,1,1.622,1.129,2.98,2.98,0,0,1,.673,2.05,3.5,3.5,0,0,1-.6,1.992,4.107,4.107,0,0,1-1.816,1.421,7.363,7.363,0,0,1-2.958.53,10.2,10.2,0,0,1-2.968-.435" transform="translate(88.176 67.707)" fill="#fff"/>
        <path id="Tracé_171" data-name="Tracé 171" d="M50.538,39.477v2.067H40.579V28.267h9.693v2.067H43.044v3.451h6.412v2.03H43.044v3.662Z" transform="translate(97.39 67.841)" fill="#fff"/>
        <rect id="Rectangle_87" data-name="Rectangle 87" width="46.383" height="15.341" transform="translate(68.752 121)" fill="#fff"/>
        <rect id="Rectangle_88" data-name="Rectangle 88" width="46.383" height="15.341" transform="translate(22.369 121)" fill="#004884"/>
        <rect id="Rectangle_89" data-name="Rectangle 89" width="46.383" height="15.341" transform="translate(115.135 121)" fill="#e30613"/>
      </g>
    </g>
    <g id="Groupe_1195" data-name="Groupe 1195" transform="translate(970.888 5675.072)">
      <g id="Groupe_1194" data-name="Groupe 1194" clip-path="url(#clip-path-2)">
        <path id="Tracé_172" data-name="Tracé 172" d="M12.908,0a12.908,12.908,0,0,0,0,25.816h1.744V22.327H12.908a9.419,9.419,0,0,1,0-18.839h1.744V0Z" fill="#fff" fill-rule="evenodd"/>
        <path id="Tracé_173" data-name="Tracé 173" d="M97.12,3.489h1.744V0H97.12a12.908,12.908,0,0,0,0,25.816h1.744V22.327H97.12a9.43,9.43,0,0,1-9.251-7.675h7.558V11.164H87.869A9.43,9.43,0,0,1,97.12,3.489" transform="translate(-68.984)" fill="#fff" fill-rule="evenodd"/>
      </g>
    </g>
    <g id="Groupe_1197" data-name="Groupe 1197" transform="translate(919.232 5672.112)">
      <g id="Groupe_1196" data-name="Groupe 1196" transform="translate(0 0)" clip-path="url(#clip-path-3)">
        <path id="Tracé_174" data-name="Tracé 174" d="M35.374,15.24c-1.732-6.489-10.993-9.309-20.683-6.3S-1.452,19.657.282,26.146s10.993,9.309,20.684,6.3,16.143-10.715,14.409-17.2M16.8,27.435H15.138A2.749,2.749,0,0,1,13.1,26.5c-1.519-1.584-4.046-4.712-4.046-4.712L7.909,20.364a9.067,9.067,0,0,1-.019,1.783l-.464,5.3h-2.7l.825-9.43s.383-.013.922,0a4.223,4.223,0,0,1,2.847.864c1.1,1.151,4.136,4.883,4.136,4.883.233.281.927,1.166,1,1.321a8.233,8.233,0,0,1,.006-1.775l.672-7.615h2.7Zm14.635-11.53H25.589c-1.6,0-2.989-.036-3.085,1.062l-.173,1.966a19.94,19.94,0,0,1,2.508-.16l0-.005h3.7c-.032.35-.482,1.81-1.018,2.013H24.189c-1.291.056-2.043.268-2.109,1.022l-.5,5.632h-2.7s.956-10.861.994-11.291c.2-2.252,3.325-2.251,5.74-2.251h6.839c-.032.35-.482,1.81-1.018,2.013" transform="translate(0 -4.874)" fill="#fff"/>
        <path id="Tracé_175" data-name="Tracé 175" d="M4.033,22.745a.542.542,0,0,0-.162.454.808.808,0,0,0,.281.475q.518.482.926.042a2.1,2.1,0,0,0,.333-.521l.275.255A1.886,1.886,0,0,1,5.319,24a1.073,1.073,0,0,1-.747.394,1.1,1.1,0,0,1-.776-.344,1.181,1.181,0,0,1-.33-.493.916.916,0,0,1-.014-.544,1.282,1.282,0,0,1,.309-.526,1.778,1.778,0,0,1,.585-.41l.156.368a2.858,2.858,0,0,0-.256.131.89.89,0,0,0-.212.166" transform="translate(-2.153 -13.91)" fill="#fff"/>
        <path id="Tracé_176" data-name="Tracé 176" d="M9.054,20.1l-1.022.919-1.413-1.57,1.022-.919.246.272-.646.581.31.345.6-.541.245.273L7.8,20l.364.4.646-.581Z" transform="translate(-4.17 -11.672)" fill="#fff"/>
        <path id="Tracé_177" data-name="Tracé 177" d="M11.685,17.079l.49.645-.4.306-1.279-1.682.554-.421a1.312,1.312,0,0,1,.669-.311.537.537,0,0,1,.474.238.517.517,0,0,1,.108.334.762.762,0,0,1-.124.38q.86.241,1.116.308l-.447.34-.944-.3Zm-.221-.29.13-.1a.683.683,0,0,0,.239-.271.242.242,0,0,0-.044-.246.224.224,0,0,0-.222-.1.789.789,0,0,0-.327.168l-.122.092Z" transform="translate(-6.611 -9.838)" fill="#fff"/>
        <path id="Tracé_178" data-name="Tracé 178" d="M16.916,13.852l-.426.274-.943-1.463L15,13.015l-.2-.313,1.516-.977.2.313-.545.352Z" transform="translate(-9.325 -7.387)" fill="#fff"/>
        <rect id="Rectangle_92" data-name="Rectangle 92" width="0.506" height="2.113" transform="matrix(0.868, -0.496, 0.496, 0.868, 7.299, 4.173)" fill="#fff"/>
        <path id="Tracé_179" data-name="Tracé 179" d="M23.648,10.454l-.444.225L22.246,8.8l1.22-.62.166.327-.776.394.247.485.722-.367.166.326-.722.367Z" transform="translate(-14.015 -5.151)" fill="#fff"/>
        <rect id="Rectangle_93" data-name="Rectangle 93" width="0.507" height="2.113" transform="translate(9.851 2.847) rotate(-24.226)" fill="#fff"/>
        <path id="Tracé_180" data-name="Tracé 180" d="M31.333,6.122l-1.279.5L29.279,4.66l1.279-.5.135.342-.808.318.17.432.752-.3.135.341-.752.3.2.507.808-.319ZM29.581,4.36l-.014-.036a4.161,4.161,0,0,0,.2-.545l.519-.2L30.3,3.6c-.034.067-.1.172-.188.314s-.164.25-.218.323Z" transform="translate(-18.446 -2.251)" fill="#fff"/>
        <path id="Tracé_181" data-name="Tracé 181" d="M37.795,3.691a.611.611,0,0,1-.083.569,1.121,1.121,0,0,1-.605.368l-.208.061.213.721-.485.144-.6-2.027.731-.216a1.115,1.115,0,0,1,.68-.029.571.571,0,0,1,.357.409m-1,.646.16-.047a.6.6,0,0,0,.312-.178.271.271,0,0,0,.044-.261.276.276,0,0,0-.159-.2.5.5,0,0,0-.314.014l-.221.065Z" transform="translate(-22.696 -2.042)" fill="#fff"/>
        <path id="Tracé_182" data-name="Tracé 182" d="M43.666,3.749,43.388,3.3l-.85.188-.061.528-.532.118.365-2.254.6-.134L44.2,3.631Zm-.477-.794q-.382-.615-.431-.7c-.033-.054-.057-.1-.073-.129q-.013.192-.1.96Z" transform="translate(-26.425 -1.097)" fill="#fff"/>
        <path id="Tracé_183" data-name="Tracé 183" d="M48.353,2.156l.115.8-.5.072-.3-2.092.689-.1a1.313,1.313,0,0,1,.736.053.535.535,0,0,1,.3.438.522.522,0,0,1-.068.345.762.762,0,0,1-.293.271q.634.629.825.812l-.556.08-.679-.722ZM48.3,1.8l.162-.023a.693.693,0,0,0,.341-.12.243.243,0,0,0,.081-.237.224.224,0,0,0-.145-.195.8.8,0,0,0-.368-.012l-.152.022Z" transform="translate(-30.03 -0.513)" fill="#fff"/>
        <path id="Tracé_184" data-name="Tracé 184" d="M56.7.374a.544.544,0,0,0-.435.206.811.811,0,0,0-.137.535q.027.706.626.684a2.118,2.118,0,0,0,.6-.135l.014.376a1.871,1.871,0,0,1-.652.133,1.07,1.07,0,0,1-.807-.249,1.093,1.093,0,0,1-.306-.792,1.18,1.18,0,0,1,.113-.582.92.92,0,0,1,.375-.4A1.277,1.277,0,0,1,56.691,0a1.782,1.782,0,0,1,.7.122l-.149.37c-.09-.034-.181-.064-.273-.088A.9.9,0,0,0,56.7.374" transform="translate(-35.035 0)" fill="#fff"/>
        <path id="Tracé_185" data-name="Tracé 185" d="M62.579,1.613a.524.524,0,0,1-.25.442,1.1,1.1,0,0,1-.653.141,1.692,1.692,0,0,1-.671-.152l.016-.416a3.05,3.05,0,0,0,.4.149,1.364,1.364,0,0,0,.3.051.476.476,0,0,0,.257-.047.185.185,0,0,0,.1-.164.172.172,0,0,0-.035-.112.427.427,0,0,0-.112-.1,3.128,3.128,0,0,0-.3-.155,1.491,1.491,0,0,1-.322-.187.685.685,0,0,1-.167-.2A.509.509,0,0,1,61.087.6.519.519,0,0,1,61.318.17a.967.967,0,0,1,.6-.138,1.557,1.557,0,0,1,.354.052,2.736,2.736,0,0,1,.349.123l-.176.342A2.67,2.67,0,0,0,62.132.44,1.116,1.116,0,0,0,61.887.4a.358.358,0,0,0-.223.051.189.189,0,0,0-.083.152.178.178,0,0,0,.027.1A.337.337,0,0,0,61.7.8a3.232,3.232,0,0,0,.315.16,1.286,1.286,0,0,1,.448.3.514.514,0,0,1,.111.353" transform="translate(-38.433 -0.019)" fill="#fff"/>
        <path id="Tracé_186" data-name="Tracé 186" d="M66.846,2.449l-.5-.058.2-1.729L65.9.589,65.94.218l1.792.2-.043.37L67.044.72Z" transform="translate(-41.515 -0.137)" fill="#fff"/>
        <path id="Tracé_187" data-name="Tracé 187" d="M71.235.962l.727.154a1.592,1.592,0,0,1,.7.277.433.433,0,0,1,.141.445.472.472,0,0,1-.163.283.408.408,0,0,1-.292.087l0,.014a.542.542,0,0,1,.286.232.5.5,0,0,1,.031.34.517.517,0,0,1-.325.393,1.12,1.12,0,0,1-.66.026L70.8,3.029Zm.249,1.271-.114.539.323.068a.535.535,0,0,0,.316-.006.245.245,0,0,0,.142-.191q.055-.258-.361-.345Zm.073-.348.288.061a.6.6,0,0,0,.3.006.2.2,0,0,0,.129-.164.182.182,0,0,0-.063-.191.709.709,0,0,0-.3-.117l-.26-.055Z" transform="translate(-44.603 -0.606)" fill="#fff"/>
      </g>
    </g>
  </g>
</svg>
