<svg xmlns="http://www.w3.org/2000/svg" width="199.974" height="230.913" viewBox="0 0 199.974 230.913">
  <g id="Groupe_2541" data-name="Groupe 2541" transform="translate(-266 -5139.741)">
    <g id="Groupe_2525" data-name="Groupe 2525" transform="translate(320.465 5199.574)">
      <path id="Tracé_272" data-name="Tracé 272" d="M35.771,90.1a15.893,15.893,0,0,1-2.415-.145,3.259,3.259,0,0,1,1-6.441c.564.081,14.668,1.836,24.152-16.214,9.661-18.6-7.455-46.694-7.632-47.032a3.221,3.221,0,0,1,5.474-3.4c.789,1.288,19.322,31.542,7.874,53.408C54.867,88.164,41.262,90.1,35.771,90.1Z" transform="translate(12.412 7.973)" fill="#fecc02"/>
      <path id="Tracé_273" data-name="Tracé 273" d="M26.478,91.725a3.22,3.22,0,0,1-1.916-.644c-9.886-7.439-15.006-19.708-14.234-34.5.628-11.963,7.085-19.949,12.881-27.018,5.974-7.39,11.126-13.767,10.337-23.8a3.22,3.22,0,0,1,4.991-2.947c.853.564,19.032,12.881,20.384,35.97a1.385,1.385,0,0,0,.113-.161,3.225,3.225,0,0,1,5.2,3.816,24.683,24.683,0,0,1-7.213,6.569,3.22,3.22,0,0,1-4.83-3.14A40.688,40.688,0,0,0,39.617,12.056c-1.32,8.791-6.44,15.2-11.528,21.431-5.539,6.988-10.82,13.428-11.335,23.347-.66,12.656,3.478,22.976,11.657,29.095a3.214,3.214,0,0,1-1.932,5.8Z" fill="#fecc02"/>
      <path id="Tracé_274" data-name="Tracé 274" d="M38.326,78.317a3.494,3.494,0,0,1-1-.161C30.759,76.014,19.617,68,24.447,53.022a3.226,3.226,0,0,1,4.38-1.948L33.8,53.328c1.127-2.174,2.351-6.746.306-14.8a3.234,3.234,0,0,1,6.263-1.61c3.929,15.844-2.592,22.107-3.349,22.767a3.22,3.22,0,0,1-3.43.5l-3.784-1.61C29,66.321,34.9,70.073,37.859,71.458c8.872-6.779,11.078-14.733,6.183-22.542A3.22,3.22,0,0,1,49.5,45.5c7.02,11.271,3.526,23.315-9.355,32.283a3.3,3.3,0,0,1-1.819.531Z" transform="translate(7.941 19.655)" fill="#fecc02"/>
    </g>
    <path id="Tracé_277" data-name="Tracé 277" d="M99.237.289.25,57.439v114.3l98.987,57.154,98.987-57.15V57.439Z" transform="translate(266.75 5140.607)" fill="none" stroke="#ddd" stroke-width="2"/>
  </g>
</svg>
