<svg xmlns="http://www.w3.org/2000/svg" width="30.784" height="30.784" viewBox="0 0 30.784 30.784">
  <path id="Tracé_22" data-name="Tracé 22" d="M15.392,3A15.392,15.392,0,1,0,30.784,18.392,15.392,15.392,0,0,0,15.392,3M11.476,25.3H8.561V16.065h2.915ZM9.944,14.91H9.923a1.612,1.612,0,0,1-1.739-1.6,1.628,1.628,0,0,1,1.781-1.6,1.61,1.61,0,1,1-.02,3.2M23.14,25.3H19.834V20.522c0-1.251-.517-2.105-1.654-2.105A1.669,1.669,0,0,0,16.6,19.549a2.107,2.107,0,0,0-.071.755v5H13.256s.043-8.467,0-9.236h3.275v1.449a2.994,2.994,0,0,1,2.91-1.538c2.072,0,3.7,1.329,3.7,4.189Z" transform="translate(0 -3)" fill="#244879"/>
</svg>
