<svg xmlns="http://www.w3.org/2000/svg" xmlns:xlink="http://www.w3.org/1999/xlink" width="319" height="64" viewBox="0 0 319 64">
  <defs>
    <clipPath id="clip-path">
      <rect id="Rectangle_2" data-name="Rectangle 2" width="221.283" height="46.612" fill="none"/>
    </clipPath>
  </defs>
  <g id="Groupe_1209" data-name="Groupe 1209" transform="translate(-73 -59)">
    <g id="Groupe_4" data-name="Groupe 4" transform="translate(-279 40)">
      <g id="Groupe_1" data-name="Groupe 1" transform="translate(352 29)">
        <g id="Groupe_1-2" data-name="Groupe 1" transform="translate(0 0)" clip-path="url(#clip-path)">
          <path id="Tracé_1" data-name="Tracé 1" d="M168.722,20.843a4.9,4.9,0,0,1,5.163,5.071,5.136,5.136,0,0,1-1.286,3.476,5.057,5.057,0,0,1-3.877,1.572h-6.487V20.843Zm0-6.124H155.748v31.1h6.532V36.871h6.442a11.343,11.343,0,0,0,8.609-3.459,11.144,11.144,0,0,0,2.873-7.6c0-5.339-3.592-11.087-11.482-11.087" transform="translate(-74.073 -7)" fill="#004884"/>
          <path id="Tracé_2" data-name="Tracé 2" d="M219.151,20.843a4.9,4.9,0,0,1,5.163,5.071,5.136,5.136,0,0,1-1.286,3.476,5.057,5.057,0,0,1-3.877,1.572h-6.487V20.843Zm0-6.124H206.177v31.1h6.532V36.871h6.442a11.343,11.343,0,0,0,8.609-3.459,11.144,11.144,0,0,0,2.873-7.6c0-5.339-3.592-11.087-11.482-11.087" transform="translate(-98.057 -7)" fill="#004884"/>
          <path id="Tracé_3" data-name="Tracé 3" d="M114.447,25.673c-3.894-.464-6.488-1.235-6.488-3.5,0-2.291,2.287-3.714,5.972-3.714,3.243,0,5.99,1.663,6.929,3.229l.147.243,5.061-2.745-.076-.154c-2-4.069-6.227-6.219-12.238-6.219-6.019.047-12.093,2.905-12.093,9.185,0,7.1,5.879,8.776,12.234,9.532,6.746.725,6.746,3.3,6.746,4.15,0,3.929-5.1,4.235-6.667,4.235-4,0-7.09-1.726-8.254-4.617l-.134-.331-5.316,2.882.069.168c2.1,5.164,6.529,7.674,13.548,7.674a16.332,16.332,0,0,0,9.107-2.357,8.814,8.814,0,0,0,3.988-7.654c0-7.438-6.023-9.206-12.535-10.009" transform="translate(-47.689 -6.095)" fill="#004884"/>
          <path id="Tracé_4" data-name="Tracé 4" d="M43.5,27.713V42.285L30.193,49.97,21.046,44.69v7.935l9.147,5.281L50.377,46.252V23.745Z" transform="translate(-10.009 -11.293)" fill="#004884"/>
          <path id="Tracé_5" data-name="Tracé 5" d="M33.468,15.224l6.872-3.967L20.843,0,1.385,11.233,8.257,15.2,20.843,7.935Z" transform="translate(-0.659 0)" fill="#004884"/>
          <path id="Tracé_6" data-name="Tracé 6" d="M0,23.659V46.211l6.872,3.968V27.626Z" transform="translate(0 -11.252)" fill="#004884"/>
          <path id="Tracé_7" data-name="Tracé 7" d="M20.935,34.323l9.205,15.944V39.62Z" transform="translate(-9.957 -16.324)" fill="#fab600"/>
          <path id="Tracé_8" data-name="Tracé 8" d="M38.489,39.621h0V50.267l9.205-15.943Z" transform="translate(-18.306 -16.324)" fill="#fc0"/>
          <path id="Tracé_9" data-name="Tracé 9" d="M39.346,34.323H20.935l9.205,5.3Z" transform="translate(-9.957 -16.324)" fill="#ffdf30"/>
          <path id="Tracé_10" data-name="Tracé 10" d="M409.656,17.973V45.5h6.46V14.494Z" transform="translate(-194.833 -6.893)" fill="#004884"/>
          <path id="Tracé_11" data-name="Tracé 11" d="M362.424,34.05H351.666l5.379-12.332Zm-2.108-19.436h-6.542l-13.89,30.964h6.673l2.621-5.765H364.91l2.577,5.765h6.718Z" transform="translate(-161.649 -6.95)" fill="#004884"/>
          <rect id="Rectangle_1" data-name="Rectangle 1" width="1.229" height="43.85" transform="translate(144.759 1.189)" fill="#004884"/>
          <path id="Tracé_12" data-name="Tracé 12" d="M314.613,20.816a4.889,4.889,0,0,1,5.15,5.059,5.128,5.128,0,0,1-1.282,3.467,5.047,5.047,0,0,1-3.868,1.568h-6.471V20.816Zm0-6.109H301.671v31.02h6.516V36.8h6.426a11.314,11.314,0,0,0,8.588-3.451,11.108,11.108,0,0,0,2.866-7.585c0-5.326-3.584-11.06-11.453-11.06" transform="translate(-143.475 -6.995)" fill="#004884"/>
        </g>
      </g>
    </g>
    <g id="Groupe_1206" data-name="Groupe 1206" transform="translate(0 40)">
      <circle id="Ellipse_2" data-name="Ellipse 2" cx="32" cy="32" r="32" transform="translate(328 19)" fill="#f5f5f5"/>
      <g id="Groupe_8" data-name="Groupe 8" transform="translate(337.884 36.383)">
        <g id="Groupe_9" data-name="Groupe 9" transform="translate(0 0)">
          <path id="Tracé_13" data-name="Tracé 13" d="M9.358,4.767a3.537,3.537,0,0,1,3.725,3.659,3.711,3.711,0,0,1-.928,2.506,3.652,3.652,0,0,1-2.8,1.134H4.679v-7.3Zm0-4.417H0V22.78H4.712V16.326H9.358a8.176,8.176,0,0,0,6.208-2.5A8.025,8.025,0,0,0,17.64,8.348c0-3.852-2.591-8-8.282-8" transform="translate(0 0.372)" fill="#004884"/>
          <path id="Tracé_14" data-name="Tracé 14" d="M19.189,2.848V22.791h4.679V.328Z" transform="translate(20.364 0.349)" fill="#004884"/>
          <path id="Tracé_15" data-name="Tracé 15" d="M18.963,9.275c-2.809-.334-4.679-.893-4.679-2.523,0-1.653,1.649-2.68,4.306-2.68a6.105,6.105,0,0,1,5,2.329l.105.175L27.346,4.6l-.056-.111C25.851,1.552,22.8,0,18.464,0,14.121.035,9.741,2.1,9.741,6.627c0,5.12,4.24,6.33,8.824,6.874,4.867.524,4.867,2.383,4.867,2.993,0,2.834-3.681,3.055-4.809,3.055-2.89,0-5.114-1.245-5.955-3.331l-.095-.237L8.737,18.058l.049.122c1.513,3.725,4.71,5.534,9.772,5.534a11.8,11.8,0,0,0,6.569-1.7A6.358,6.358,0,0,0,28,16.494c0-5.363-4.345-6.639-9.041-7.218" transform="translate(9.272 0.001)" fill="#004884"/>
          <path id="Tracé_16" data-name="Tracé 16" d="M4.661,15.556H5.677v2.311a4.074,4.074,0,0,1-1.13.579,3.986,3.986,0,0,1-1.276.221,3.263,3.263,0,0,1-1.63-.416A3.11,3.11,0,0,1,.483,17.114a3.036,3.036,0,0,1-.427-1.585,2.947,2.947,0,0,1,.435-1.577,3.133,3.133,0,0,1,1.185-1.121,3.408,3.408,0,0,1,1.663-.412,3.674,3.674,0,0,1,1.286.235A3.428,3.428,0,0,1,5.72,13.3l-.66.86a2.516,2.516,0,0,0-.8-.513,2.456,2.456,0,0,0-.917-.181,2.094,2.094,0,0,0-1.055.274,2.014,2.014,0,0,0-.761.75,2.109,2.109,0,0,0,0,2.094,2.107,2.107,0,0,0,.761.756,2.07,2.07,0,0,0,1.059.278,2.369,2.369,0,0,0,.658-.1,2.883,2.883,0,0,0,.655-.284Z" transform="translate(3.059 13.18)" fill="#004884"/>
          <path id="Tracé_17" data-name="Tracé 17" d="M4.6,15.724H5.974a1.55,1.55,0,0,0,1.008-.287,1.041,1.041,0,0,0,.346-.851,1.007,1.007,0,0,0-.346-.835,1.587,1.587,0,0,0-1.008-.278H4.6Zm2.64,2.816-1.051-1.8a1.783,1.783,0,0,1-.216.01H4.6V18.54H3.437V12.457H5.974a2.735,2.735,0,0,1,1.824.548,1.919,1.919,0,0,1,.643,1.546,2.278,2.278,0,0,1-.309,1.216,1.9,1.9,0,0,1-.9.756L8.571,18.54Z" transform="translate(6.647 13.221)" fill="#004884"/>
          <path id="Tracé_18" data-name="Tracé 18" d="M8.477,13.737a2.08,2.08,0,0,0-.752,2.844,2.112,2.112,0,0,0,.756.756,2,2,0,0,0,1.031.278,1.958,1.958,0,0,0,1.016-.278,2.026,2.026,0,0,0,.742-.756,2.145,2.145,0,0,0,0-2.1,2,2,0,0,0-.742-.746,1.974,1.974,0,0,0-1.016-.274,2.035,2.035,0,0,0-1.035.274m2.663-.909a3.109,3.109,0,0,1,1.169,4.287,3.108,3.108,0,0,1-1.169,1.136,3.465,3.465,0,0,1-3.294,0,3.108,3.108,0,0,1-1.169-1.136,3.079,3.079,0,0,1,1.169-4.287,3.527,3.527,0,0,1,3.294,0" transform="translate(9.636 13.181)" fill="#004884"/>
          <path id="Tracé_19" data-name="Tracé 19" d="M11.413,17.167a1.479,1.479,0,0,0,1.095.408,1.437,1.437,0,0,0,1.082-.408,1.555,1.555,0,0,0,.4-1.13v-3.58H15.15v3.58a2.837,2.837,0,0,1-.322,1.377,2.179,2.179,0,0,1-.917.9,2.957,2.957,0,0,1-1.4.313,3.026,3.026,0,0,1-1.42-.313,2.153,2.153,0,0,1-.925-.9,2.814,2.814,0,0,1-.322-1.377v-3.58H11v3.58a1.528,1.528,0,0,0,.408,1.13" transform="translate(13.442 13.221)" fill="#004884"/>
          <path id="Tracé_20" data-name="Tracé 20" d="M16.525,15.438a1.03,1.03,0,0,0,.352-.851,1,1,0,0,0-.352-.833,1.6,1.6,0,0,0-1.012-.278H14.246v2.249h1.268a1.558,1.558,0,0,0,1.012-.287m.827-2.432a1.935,1.935,0,0,1,.629,1.546,2.088,2.088,0,0,1-.629,1.622,2.533,2.533,0,0,1-1.777.577H14.246V18.54H13.081V12.457h2.494a2.626,2.626,0,0,1,1.777.548" transform="translate(16.882 13.221)" fill="#004884"/>
          <path id="Tracé_21" data-name="Tracé 21" d="M15.927,12.457h4.458v1.016H17.092v1.5h2.954v1.016H17.092v1.529h3.4V18.54H15.927Z" transform="translate(19.902 13.221)" fill="#004884"/>
        </g>
      </g>
    </g>
  </g>
</svg>
