<svg xmlns="http://www.w3.org/2000/svg" width="15.703" height="17.37" viewBox="0 0 15.703 17.37">
  <path id="Tracé_25" data-name="Tracé 25" d="M17.161,2a.833.833,0,0,0-.834.834v.531a7.532,7.532,0,0,1-5.835,2.8h-5a2.5,2.5,0,0,0-2.5,2.5v1.667a2.5,2.5,0,0,0,2.5,2.5h.4l-2,4.673a.833.833,0,0,0,.766,1.162H7.992a.832.832,0,0,0,.766-.505l2.27-5.3a7.525,7.525,0,0,1,5.3,2.771v.531a.834.834,0,1,0,1.667,0V2.836A.833.833,0,0,0,17.161,2ZM5.492,11.171a.834.834,0,0,1-.834-.834V8.67a.834.834,0,0,1,.834-.834h.834v3.334Zm1.951,5.835H5.922l1.786-4.168h1.52Zm8.884-3.733a9.212,9.212,0,0,0-5.835-2.1h-2.5V7.836h2.5a9.213,9.213,0,0,0,5.835-2.1Z" transform="translate(-2.641 -1.652)" fill="#4e4e4e" stroke="#fff" stroke-width="0.7"/>
</svg>
