<svg xmlns="http://www.w3.org/2000/svg" width="22.703" height="22.703" viewBox="0 0 22.703 22.703">
  <path id="path7" d="M12.038.986A11.052,11.052,0,1,0,23.089,12.038,11.065,11.065,0,0,0,12.038.986Zm0,1.576a9.457,9.457,0,0,1,6.946,15.9,9.2,9.2,0,0,0-4.041-2.764,4.72,4.72,0,1,0-7.706-3.628,4.678,4.678,0,0,0,1.739,3.622A9.211,9.211,0,0,0,5,18.362a9.464,9.464,0,0,1,7.041-15.8ZM11.982,8.9a3.148,3.148,0,0,1,.1,6.294c-.046,0-.09-.009-.135-.009s-.078.008-.117.009A3.148,3.148,0,0,1,11.982,8.9Zm-.151,7.866c.038,0,.076.012.114.012h.037c.035,0,.064-.011.1-.012a7.628,7.628,0,0,1,5.74,2.761,9.422,9.422,0,0,1-11.679-.074A7.638,7.638,0,0,1,11.832,16.762Z" transform="translate(-0.686 -0.686)" fill="#4e4e4e" stroke="#fff" stroke-width="0.6"/>
</svg>
