<svg id="Groupe_2665" data-name="Groupe 2665" xmlns="http://www.w3.org/2000/svg" xmlns:xlink="http://www.w3.org/1999/xlink" width="69.713" height="27.113" viewBox="0 0 69.713 27.113">
  <defs>
    <linearGradient id="linear-gradient" x1="-45.942" y1="78.256" x2="-46.149" y2="77.713" gradientUnits="objectBoundingBox">
      <stop offset="0" stop-color="#fff"/>
      <stop offset="0.093" stop-color="#fef5f5"/>
      <stop offset="0.252" stop-color="#fcdadb"/>
      <stop offset="0.457" stop-color="#f9aeb1"/>
      <stop offset="0.7" stop-color="#f47176"/>
      <stop offset="0.973" stop-color="#ee242c"/>
      <stop offset="1" stop-color="#ed1c24"/>
    </linearGradient>
  </defs>
  <path id="Tracé_316" data-name="Tracé 316" d="M90.908,20.217a6.9,6.9,0,0,1-6.9,6.9H56.724a6.9,6.9,0,0,1-6.9-6.9V6.9a6.9,6.9,0,0,1,6.9-6.9H84.012a6.9,6.9,0,0,1,6.9,6.9V20.217Z" transform="translate(-21.195)" fill="#ec2027"/>
  <g id="Groupe_2662" data-name="Groupe 2662" transform="translate(55.403 1.197)">
    <path id="Tracé_317" data-name="Tracé 317" d="M96.414,2.338S108.956.612,109.3,6.135v4.488Z" transform="translate(-96.414 -2.083)" fill="url(#linear-gradient)"/>
  </g>
  <g id="Groupe_2663" data-name="Groupe 2663" transform="translate(32.638 4.382)">
    <path id="Tracé_318" data-name="Tracé 318" d="M59.644,24.869v-14.4H56.8V7.626h8.162v2.847H62.112v14.4ZM72.676,11.92V24.869H70.414V23.582a2.276,2.276,0,0,1-2.094,1.631q-2.222,0-2.223-3.123V11.92h2.227v8.461a6.454,6.454,0,0,0,.12,1.489q.215.772.857.773.695,0,.926-.84a7.1,7.1,0,0,0,.128-1.612V11.92Zm1.989,12.949V7.626h2.307v5.39a2.009,2.009,0,0,1,1.957-1.441q1.758,0,2.3,2.506a23.416,23.416,0,0,1,.276,4.375,21.515,21.515,0,0,1-.3,4.318q-.568,2.438-2.324,2.439a2.08,2.08,0,0,1-2.023-1.7v1.354H74.665ZM78.11,14.09q-.946,0-1.162,1.992-.044.4-.043,2.855a20.273,20.273,0,0,0,.078,2.361q.225,1.443,1.128,1.444.842,0,1.023-1.769.044-.37.044-2.54,0-2.249-.035-2.563Q78.96,14.09,78.11,14.09Zm9.519,6.335H89.8q0,.09.009.252c.007.108.009.193.009.252a5.184,5.184,0,0,1-.826,3.262,3.1,3.1,0,0,1-2.566,1.023,2.84,2.84,0,0,1-2.592-1.242,6.525,6.525,0,0,1-.8-2.875q-.078-.828-.078-3.123,0-1.846.078-2.628a5.577,5.577,0,0,1,.681-2.416,3.04,3.04,0,0,1,2.773-1.354,2.89,2.89,0,0,1,2.694,1.464q.69,1.185.688,4.784v.983H85.337c-.017.143-.026.419-.026.829a12.076,12.076,0,0,0,.121,2.061q.25,1.266,1.033,1.266,1.164,0,1.164-2.538Zm-2.311-3.673h2.234v-.547a5.611,5.611,0,0,0-.156-1.586.955.955,0,0,0-.972-.748.9.9,0,0,0-.87.514,3.872,3.872,0,0,0-.258,1.82l.012.179Q85.318,16.574,85.318,16.752Z" transform="translate(-56.797 -7.626)" fill="#fff"/>
  </g>
  <g id="Groupe_2664" data-name="Groupe 2664" transform="translate(0 4.382)">
    <path id="Tracé_319" data-name="Tracé 319" d="M3.5,24.966V17.614L0,7.626H2.754l2.018,6.523L6.762,7.626H9.438L6,17.614v7.352H3.5Zm6.8-6.5a15.547,15.547,0,0,1,.511-4.772A2.94,2.94,0,0,1,13.818,11.6a2.955,2.955,0,0,1,3.02,2.093,15.474,15.474,0,0,1,.511,4.772,15.463,15.463,0,0,1-.511,4.77,2.954,2.954,0,0,1-3.02,2.082,2.939,2.939,0,0,1-3.012-2.093,15.414,15.414,0,0,1-.511-4.759Zm2.378.168q0,2.419.026,2.631Q12.88,23,13.8,23t1.127-1.5q.043-.327.043-2.44V17.8q0-1.98-.051-2.384-.216-1.484-1.1-1.484-.861,0-1.076,1.305a19.7,19.7,0,0,0-.068,2.192v1.2Zm12.991-6.685V24.966H23.39V23.672a2.29,2.29,0,0,1-2.105,1.641q-2.236,0-2.236-3.139V11.944h2.24v8.509a6.5,6.5,0,0,0,.12,1.5q.215.777.862.778.7,0,.931-.844a7.124,7.124,0,0,0,.129-1.62V11.944h2.333Z" transform="translate(0 -7.626)"/>
  </g>
</svg>
